<svg width="20" height="20" viewBox="0 0 20 20" fill="none" xmlns="http://www.w3.org/2000/svg">
<path d="M9.39062 0.930511C9.39062 0.489886 9.03438 0.133636 8.59375 0.133636H0.90625C0.465625 0.133636 0.109375 0.489886 0.109375 0.930511V8.61801C0.109375 9.05864 0.465625 9.41489 0.90625 9.41489H8.59375C9.03438 9.41489 9.39062 9.05864 9.39062 8.61801V0.930511ZM7.79688 7.82114H1.70312V1.72739H7.79688V7.82114Z" fill="#3C3C3C"/>
<path d="M19.8906 0.930511C19.8906 0.489886 19.5344 0.133636 19.0938 0.133636H11.4062C10.9656 0.133636 10.6094 0.489886 10.6094 0.930511V8.61801C10.6094 9.05864 10.9656 9.41489 11.4062 9.41489H19.0938C19.5344 9.41489 19.8906 9.05864 19.8906 8.61801V0.930511ZM18.2969 7.82114H12.2031V1.72739H18.2969V7.82114Z" fill="#3C3C3C"/>
<path d="M9.39062 11.4305C9.39062 10.9899 9.03438 10.6336 8.59375 10.6336H0.90625C0.465625 10.6336 0.109375 10.9899 0.109375 11.4305V19.118C0.109375 19.5586 0.465625 19.9149 0.90625 19.9149H8.59375C9.03438 19.9149 9.39062 19.5586 9.39062 19.118V11.4305ZM7.79688 18.3211H1.70312V12.2274H7.79688V18.3211Z" fill="#3C3C3C"/>
<path d="M19.8906 11.4305C19.8906 10.9899 19.5344 10.6336 19.0938 10.6336H11.4062C10.9656 10.6336 10.6094 10.9899 10.6094 11.4305V19.118C10.6094 19.5586 10.9656 19.9149 11.4062 19.9149H19.0938C19.5344 19.9149 19.8906 19.5586 19.8906 19.118V11.4305ZM18.2969 18.3211H12.2031V12.2274H18.2969V18.3211Z" fill="#3C3C3C"/>
</svg>
