<svg width="16" height="16" viewBox="0 0 16 16" fill="none" xmlns="http://www.w3.org/2000/svg">
<path d="M6.85727 6.85714V1.14286C6.85727 0.511674 7.36894 0 8.00012 0C8.6313 0 9.14298 0.511674 9.14298 1.14286V6.85714H14.8573C15.4884 6.85714 16.0001 7.36882 16.0001 8C16.0001 8.63118 15.4884 9.14286 14.8573 9.14286H9.14298V14.8571C9.14298 15.4883 8.6313 16 8.00012 16C7.36894 16 6.85727 15.4883 6.85727 14.8571V9.14286H1.14298C0.511796 9.14286 0.00012207 8.63118 0.00012207 8C0.00012207 7.36882 0.511796 6.85714 1.14298 6.85714H6.85727Z" fill="#3C3C3C"/>
</svg>
