
<svg width="24" height="33" viewBox="0 0 24 33" fill="none" xmlns="http://www.w3.org/2000/svg">
<path d="M17.0591 10.726C17.0591 10.726 19.5359 6.62164 18.4036 6.05551C17.2714 5.48939 15.573 6.62164 15.573 6.62164C15.573 6.62164 16.7053 2.65878 14.4408 2.65878C12.1763 2.65878 11.6102 4.92327 11.6102 4.92327C11.6102 4.92327 10.7853 0.226719 7.64731 1.52654C5.68626 2.33892 4.8167 4.35715 7.64731 10.0184" stroke="black" stroke-miterlimit="10" stroke-linecap="round" stroke-linejoin="round"/>
<path d="M7.17466 19.0763C7.79999 19.0763 8.30691 18.5694 8.30691 17.9441C8.30691 17.3188 7.79999 16.8118 7.17466 16.8118C6.54934 16.8118 6.04242 17.3188 6.04242 17.9441C6.04242 18.5694 6.54934 19.0763 7.17466 19.0763Z" fill="black"/>
<path d="M17.3648 19.0763C17.9901 19.0763 18.497 18.5694 18.497 17.9441C18.497 17.3188 17.9901 16.8118 17.3648 16.8118C16.7395 16.8118 16.2325 17.3188 16.2325 17.9441C16.2325 18.5694 16.7395 19.0763 17.3648 19.0763Z" fill="black"/>
<path d="M12.281 20.2086C12.281 20.2086 22.4712 19.6425 12.281 30.3988C12.281 30.3988 2.09079 20.2086 12.281 20.2086Z" stroke="black" stroke-miterlimit="10" stroke-linecap="round" stroke-linejoin="round"/>
<path d="M3.77786 15.6796C3.77786 15.6796 6.04235 9.4523 12.2697 9.4523C18.497 9.4523 20.7615 15.6796 20.7615 15.6796C29.2534 31.5311 12.2697 32.0972 12.2697 32.0972C12.2697 32.0972 -4.71397 31.5311 3.77786 15.6796Z" stroke="black" stroke-miterlimit="10" stroke-linecap="round" stroke-linejoin="round"/>
</svg>
