<svg width="26" height="33" viewBox="0 0 26 33" fill="none" xmlns="http://www.w3.org/2000/svg">
<path d="M18.7636 17.2726C21.6919 18.0101 23.4032 13.4845 19.171 12.6073L11.7501 11.1562C12.3126 5.71875 12.7501 2.21875 8.71884 1.5C7.48774 1.3125 5.96884 1.5 6.28134 2.75C7.90634 10.0625 4.71884 14.0521 3.83304 14.9774C0.233793 18.5766 0.233793 24.4121 3.83304 28.0114C5.39589 29.4791 6.91284 29.375 10.7188 29.375C11.4376 29.375 21.0352 31.7407 21.0352 31.7407C24.4727 32.6469 25.5204 28.9823 23.2079 28.2011L21.0352 27.4176" stroke="black" stroke-width="2" stroke-linecap="round" stroke-linejoin="round"/>
<path d="M18.3516 21.7897C21.2643 22.5559 22.3829 18.0885 18.7636 17.2726" stroke="black" stroke-width="2" stroke-linecap="round" stroke-linejoin="round"/>
<path d="M17.7061 26.3893C20.6198 27.1749 21.3002 22.5916 18.3516 21.7897" stroke="black" stroke-width="2" stroke-linecap="round" stroke-linejoin="round"/>
<path d="M17.706 26.3893L14.8596 25.5977" stroke="black" stroke-width="2" stroke-miterlimit="10" stroke-linecap="round" stroke-linejoin="round"/>
<path d="M18.3516 21.7897L15.8378 21.0737" stroke="black" stroke-width="2" stroke-miterlimit="10" stroke-linecap="round" stroke-linejoin="round"/>
<path d="M18.7636 17.2726L16.6968 16.8507" stroke="black" stroke-width="2" stroke-miterlimit="10" stroke-linecap="round" stroke-linejoin="round"/>
</svg>
